<svg width="115" height="61" viewBox="0 0 115 61" fill="none" xmlns="http://www.w3.org/2000/svg">
<g filter="url(#filter0_b_17_1068)">
<rect x="0.256836" y="0.768555" width="114.17" height="59.3782" rx="12" fill="#69B42E"/>
<path d="M27.352 29.7817V33.5643H17.4519V29.7817H27.352ZM49.0344 39.1931V42.9576H31.189V39.736L39.7497 30.4875C40.6426 29.474 41.3485 28.5932 41.8673 27.8451C42.3861 27.097 42.7541 26.4213 42.9713 25.818C43.2006 25.2027 43.3152 24.6175 43.3152 24.0625C43.3152 23.254 43.1704 22.5482 42.8808 21.9449C42.5912 21.3295 42.1689 20.8529 41.6139 20.5151C41.0709 20.1772 40.4013 20.0083 39.6049 20.0083C38.7241 20.0083 37.97 20.2134 37.3426 20.6237C36.7272 21.0218 36.2566 21.5769 35.9309 22.2888C35.6172 23.0007 35.4603 23.8151 35.4603 24.7321H30.6641C30.6641 23.1756 31.0261 21.7579 31.75 20.4789C32.474 19.1878 33.5117 18.1562 34.863 17.384C36.2144 16.6118 37.8192 16.2257 39.6773 16.2257C41.4872 16.2257 43.0196 16.5273 44.2744 17.1306C45.5293 17.7218 46.4825 18.5664 47.134 19.6644C47.7856 20.7624 48.1114 22.0716 48.1114 23.5919C48.1114 24.4365 47.9726 25.269 47.6951 26.0895C47.4176 26.91 47.0255 27.7244 46.5187 28.5329C46.024 29.3292 45.4328 30.1376 44.745 30.9581C44.0572 31.7786 43.2911 32.6172 42.4464 33.4738L37.3064 39.1931H49.0344ZM69.8119 27.5193V31.9535C69.8119 33.9806 69.6068 35.7121 69.1965 37.1479C68.7863 38.5838 68.1951 39.7602 67.4229 40.6772C66.6506 41.5821 65.7276 42.2518 64.6537 42.6862C63.5799 43.1085 62.3853 43.3196 61.0702 43.3196C60.0204 43.3196 59.0431 43.1869 58.1381 42.9214C57.2332 42.6439 56.4188 42.2216 55.6948 41.6545C54.9829 41.0754 54.3676 40.3393 53.8487 39.4465C53.342 38.5536 52.9498 37.4858 52.6723 36.243C52.4068 35.0002 52.2741 33.5704 52.2741 31.9535V27.5193C52.2741 25.4923 52.4792 23.7668 52.8895 22.3431C53.3118 20.9193 53.9091 19.7549 54.6813 18.85C55.4535 17.945 56.3765 17.2875 57.4504 16.8772C58.5243 16.4549 59.7188 16.2438 61.034 16.2438C62.0958 16.2438 63.0731 16.3765 63.966 16.6419C64.8709 16.9074 65.6793 17.3236 66.3912 17.8907C67.1152 18.4458 67.7305 19.1697 68.2373 20.0626C68.7441 20.9434 69.1302 22.0052 69.3956 23.248C69.6731 24.4787 69.8119 25.9025 69.8119 27.5193ZM65.0338 32.6051V26.8497C65.0338 25.8361 64.9735 24.9553 64.8528 24.2072C64.7442 23.4471 64.5813 22.8016 64.3641 22.2707C64.147 21.7398 63.8755 21.3114 63.5497 20.9856C63.2239 20.6478 62.8499 20.4005 62.4276 20.2436C62.0053 20.0867 61.5407 20.0083 61.034 20.0083C60.4065 20.0083 59.8455 20.135 59.3508 20.3884C58.8561 20.6297 58.4398 21.0158 58.1019 21.5467C57.7641 22.0776 57.5047 22.7835 57.3237 23.6643C57.1548 24.533 57.0703 25.5948 57.0703 26.8497V32.6051C57.0703 33.6186 57.1246 34.5055 57.2332 35.2656C57.3539 36.0258 57.5228 36.6773 57.74 37.2203C57.9692 37.7633 58.2407 38.2097 58.5544 38.5596C58.8802 38.8975 59.2542 39.1509 59.6765 39.3198C60.0989 39.4766 60.5634 39.5551 61.0702 39.5551C61.7097 39.5551 62.2707 39.4284 62.7534 39.175C63.2481 38.9216 63.6643 38.5234 64.0022 37.9805C64.34 37.4254 64.5934 36.7075 64.7623 35.8267C64.9433 34.9338 65.0338 33.86 65.0338 32.6051ZM73.4136 23.067V21.6734C73.4136 20.6719 73.6308 19.761 74.0651 18.9405C74.4995 18.12 75.133 17.4624 75.9655 16.9677C76.8101 16.473 77.8357 16.2257 79.0423 16.2257C80.273 16.2257 81.3047 16.473 82.1372 16.9677C82.9818 17.4624 83.6153 18.12 84.0376 18.9405C84.472 19.761 84.6891 20.6719 84.6891 21.6734V23.067C84.6891 24.0444 84.472 24.9433 84.0376 25.7637C83.6153 26.5842 82.9879 27.2418 82.1553 27.7365C81.3228 28.2312 80.2972 28.4786 79.0785 28.4786C77.8598 28.4786 76.8282 28.2312 75.9836 27.7365C75.139 27.2418 74.4995 26.5842 74.0651 25.7637C73.6308 24.9433 73.4136 24.0444 73.4136 23.067ZM76.6533 21.6734V23.067C76.6533 23.5255 76.7377 23.9599 76.9066 24.3701C77.0876 24.7683 77.3591 25.0941 77.7211 25.3475C78.0831 25.6009 78.5355 25.7275 79.0785 25.7275C79.6215 25.7275 80.0619 25.6009 80.3997 25.3475C80.7496 25.0941 81.009 24.7683 81.178 24.3701C81.359 23.9599 81.4495 23.5255 81.4495 23.067V21.6734C81.4495 21.2028 81.359 20.7624 81.178 20.3522C81.009 19.9419 80.7436 19.6101 80.3816 19.3568C80.0317 19.1034 79.5853 18.9767 79.0423 18.9767C78.5114 18.9767 78.065 19.1034 77.703 19.3568C77.3531 19.6101 77.0876 19.9419 76.9066 20.3522C76.7377 20.7624 76.6533 21.2028 76.6533 21.6734ZM86.0647 37.89V36.4964C86.0647 35.507 86.2818 34.602 86.7162 33.7815C87.1627 32.961 87.8082 32.3035 88.6528 31.8088C89.4974 31.3141 90.517 31.0667 91.7115 31.0667C92.9543 31.0667 93.992 31.3141 94.8245 31.8088C95.657 32.3035 96.2845 32.961 96.7068 33.7815C97.1412 34.602 97.3583 35.507 97.3583 36.4964V37.89C97.3583 38.8794 97.1412 39.7843 96.7068 40.6048C96.2845 41.4253 95.657 42.0829 94.8245 42.5776C94.004 43.0723 92.9844 43.3196 91.7658 43.3196C90.5471 43.3196 89.5095 43.0723 88.6528 42.5776C87.8082 42.0829 87.1627 41.4253 86.7162 40.6048C86.2818 39.7843 86.0647 38.8794 86.0647 37.89ZM89.3225 36.4964V37.89C89.3225 38.3605 89.419 38.8009 89.612 39.2112C89.8051 39.6094 90.0826 39.9351 90.4446 40.1885C90.8186 40.4419 91.253 40.5686 91.7477 40.5686C92.351 40.5686 92.8276 40.4419 93.1775 40.1885C93.5274 39.9351 93.7748 39.6094 93.9196 39.2112C94.0643 38.8009 94.1367 38.3605 94.1367 37.89V36.4964C94.1367 36.0258 94.0462 35.5914 93.8653 35.1932C93.6843 34.783 93.4128 34.4512 93.0508 34.1978C92.7009 33.9444 92.2545 33.8177 91.7115 33.8177C91.1806 33.8177 90.7342 33.9444 90.3722 34.1978C90.0223 34.4512 89.7568 34.783 89.5758 35.1932C89.4069 35.5914 89.3225 36.0258 89.3225 36.4964ZM92.906 20.3703L80.0377 40.9668L77.6668 39.6456L90.5351 19.0491L92.906 20.3703Z" fill="white"/>
</g>
<defs>
<filter id="filter0_b_17_1068" x="-23.0174" y="-22.5057" width="160.719" height="105.927" filterUnits="userSpaceOnUse" color-interpolation-filters="sRGB">
<feFlood flood-opacity="0" result="BackgroundImageFix"/>
<feGaussianBlur in="BackgroundImageFix" stdDeviation="11.6371"/>
<feComposite in2="SourceAlpha" operator="in" result="effect1_backgroundBlur_17_1068"/>
<feBlend mode="normal" in="SourceGraphic" in2="effect1_backgroundBlur_17_1068" result="shape"/>
</filter>
</defs>
</svg>
