<svg width="143" height="76" viewBox="0 0 143 76" fill="none" xmlns="http://www.w3.org/2000/svg">
<g filter="url(#filter0_b_17_990)">
<rect x="0.873535" y="0.913208" width="141.564" height="74.3918" rx="22.5383" fill="#69B42E"/>
<path d="M34.3165 37.7044V42.414H21.9903V37.7044H34.3165ZM61.3123 49.4222V54.1093H39.0937V50.0982L49.7523 38.5832C50.864 37.3213 51.7429 36.2247 52.3888 35.2932C53.0348 34.3618 53.493 33.5206 53.7634 32.7694C54.0488 32.0033 54.1916 31.2747 54.1916 30.5836C54.1916 29.5771 54.0113 28.6983 53.6507 27.9471C53.2902 27.181 52.7644 26.5876 52.0734 26.1669C51.3973 25.7463 50.5636 25.536 49.5721 25.536C48.4754 25.536 47.5365 25.7914 46.7553 26.3021C45.9891 26.7979 45.4032 27.4889 44.9976 28.3753C44.607 29.2616 44.4117 30.2756 44.4117 31.4174H38.4402C38.4402 29.4794 38.8909 27.7143 39.7922 26.1219C40.6936 24.5144 41.9856 23.23 43.6681 22.2685C45.3507 21.3071 47.3487 20.8263 49.6622 20.8263C51.9156 20.8263 53.8235 21.2019 55.3859 21.953C56.9482 22.6892 58.135 23.7407 58.9463 25.1078C59.7575 26.4749 60.1631 28.1049 60.1631 29.9977C60.1631 31.0493 59.9903 32.0859 59.6448 33.1074C59.2993 34.129 58.8111 35.143 58.1801 36.1495C57.5642 37.141 56.8281 38.1476 55.9718 39.1691C55.1155 40.1907 54.1615 41.2348 53.1099 42.3014L46.7102 49.4222H61.3123ZM87.1815 34.8876V40.4085C87.1815 42.9323 86.9261 45.0881 86.4154 46.8758C85.9046 48.6635 85.1685 50.1282 84.207 51.27C83.2456 52.3967 82.0963 53.2304 80.7593 53.7712C79.4223 54.297 77.935 54.5599 76.2975 54.5599C74.9906 54.5599 73.7737 54.3947 72.647 54.0642C71.5203 53.7187 70.5063 53.1929 69.6049 52.4868C68.7186 51.7657 67.9524 50.8493 67.3064 49.7376C66.6755 48.6259 66.1872 47.2964 65.8417 45.7491C65.5112 44.2017 65.346 42.4215 65.346 40.4085V34.8876C65.346 32.3638 65.6013 30.2156 66.1121 28.4429C66.6379 26.6702 67.3815 25.2205 68.343 24.0938C69.3045 22.9671 70.4537 22.1483 71.7907 21.6376C73.1277 21.1118 74.615 20.8489 76.2525 20.8489C77.5745 20.8489 78.7913 21.0141 79.903 21.3446C81.0297 21.6751 82.0362 22.1934 82.9226 22.8995C83.8239 23.5905 84.5901 24.4919 85.2211 25.6036C85.852 26.7002 86.3327 28.0222 86.6633 29.5696C87.0088 31.1019 87.1815 32.8746 87.1815 34.8876ZM81.2325 41.2197V34.0539C81.2325 32.792 81.1574 31.6953 81.0072 30.7639C80.872 29.8175 80.6692 29.0137 80.3988 28.3527C80.1284 27.6917 79.7903 27.1584 79.3847 26.7528C78.9791 26.3322 78.5134 26.0242 77.9876 25.8289C77.4618 25.6336 76.8834 25.536 76.2525 25.536C75.4713 25.536 74.7727 25.6937 74.1568 26.0092C73.5409 26.3096 73.0226 26.7904 72.6019 27.4514C72.1813 28.1124 71.8583 28.9912 71.633 30.0879C71.4227 31.1695 71.3175 32.4915 71.3175 34.0539V41.2197C71.3175 42.4816 71.3851 43.5858 71.5203 44.5322C71.6705 45.4787 71.8809 46.2899 72.1513 46.9659C72.4367 47.642 72.7747 48.1978 73.1653 48.6335C73.5709 49.0541 74.0366 49.3696 74.5624 49.5799C75.0882 49.7752 75.6666 49.8728 76.2975 49.8728C77.0938 49.8728 77.7923 49.7151 78.3932 49.3996C79.0092 49.0841 79.5274 48.5884 79.9481 47.9124C80.3687 47.2213 80.6842 46.3275 80.8945 45.2308C81.1199 44.1191 81.2325 42.7821 81.2325 41.2197ZM91.6658 29.3442V27.6091C91.6658 26.3622 91.9362 25.228 92.4771 24.2065C93.0179 23.1849 93.8066 22.3662 94.8431 21.7502C95.8947 21.1343 97.1717 20.8263 98.6739 20.8263C100.206 20.8263 101.491 21.1343 102.527 21.7502C103.579 22.3662 104.368 23.1849 104.893 24.2065C105.434 25.228 105.705 26.3622 105.705 27.6091V29.3442C105.705 30.5611 105.434 31.6803 104.893 32.7018C104.368 33.7234 103.586 34.5421 102.55 35.158C101.513 35.774 100.236 36.0819 98.719 36.0819C97.2017 36.0819 95.9173 35.774 94.8657 35.158C93.8141 34.5421 93.0179 33.7234 92.4771 32.7018C91.9362 31.6803 91.6658 30.5611 91.6658 29.3442ZM95.6994 27.6091V29.3442C95.6994 29.9151 95.8046 30.4559 96.0149 30.9667C96.2403 31.4624 96.5783 31.8681 97.029 32.1835C97.4796 32.499 98.043 32.6568 98.719 32.6568C99.395 32.6568 99.9434 32.499 100.364 32.1835C100.8 31.8681 101.123 31.4624 101.333 30.9667C101.558 30.4559 101.671 29.9151 101.671 29.3442V27.6091C101.671 27.0232 101.558 26.4749 101.333 25.9641C101.123 25.4533 100.792 25.0402 100.341 24.7247C99.9058 24.4093 99.35 24.2515 98.6739 24.2515C98.0129 24.2515 97.4571 24.4093 97.0064 24.7247C96.5708 25.0402 96.2403 25.4533 96.0149 25.9641C95.8046 26.4749 95.6994 27.0232 95.6994 27.6091ZM107.417 47.7997V46.0646C107.417 44.8327 107.688 43.706 108.228 42.6844C108.784 41.6629 109.588 40.8442 110.64 40.2282C111.691 39.6123 112.961 39.3043 114.448 39.3043C115.995 39.3043 117.287 39.6123 118.324 40.2282C119.36 40.8442 120.141 41.6629 120.667 42.6844C121.208 43.706 121.478 44.8327 121.478 46.0646V47.7997C121.478 49.0316 121.208 50.1583 120.667 51.1798C120.141 52.2014 119.36 53.0201 118.324 53.636C117.302 54.252 116.033 54.5599 114.515 54.5599C112.998 54.5599 111.706 54.252 110.64 53.636C109.588 53.0201 108.784 52.2014 108.228 51.1798C107.688 50.1583 107.417 49.0316 107.417 47.7997ZM111.473 46.0646V47.7997C111.473 48.3856 111.594 48.9339 111.834 49.4447C112.074 49.9404 112.42 50.3461 112.87 50.6615C113.336 50.977 113.877 51.1347 114.493 51.1347C115.244 51.1347 115.837 50.977 116.273 50.6615C116.709 50.3461 117.017 49.9404 117.197 49.4447C117.377 48.9339 117.467 48.3856 117.467 47.7997V46.0646C117.467 45.4787 117.355 44.9379 117.129 44.4421C116.904 43.9313 116.566 43.5182 116.115 43.2027C115.68 42.8873 115.124 42.7295 114.448 42.7295C113.787 42.7295 113.231 42.8873 112.78 43.2027C112.345 43.5182 112.014 43.9313 111.789 44.4421C111.578 44.9379 111.473 45.4787 111.473 46.0646ZM115.935 25.9867L99.9133 51.6305L96.9613 49.9855L112.983 24.3417L115.935 25.9867Z" fill="white"/>
</g>
<defs>
<filter id="filter0_b_17_990" x="-28.1043" y="-28.0646" width="199.52" height="132.348" filterUnits="userSpaceOnUse" color-interpolation-filters="sRGB">
<feFlood flood-opacity="0" result="BackgroundImageFix"/>
<feGaussianBlur in="BackgroundImageFix" stdDeviation="14.4889"/>
<feComposite in2="SourceAlpha" operator="in" result="effect1_backgroundBlur_17_990"/>
<feBlend mode="normal" in="SourceGraphic" in2="effect1_backgroundBlur_17_990" result="shape"/>
</filter>
</defs>
</svg>
